<svg id="Layer_1" data-name="Layer 1" xmlns="http://www.w3.org/2000/svg" viewBox="0 0 222.26 215.69"><defs><style>.cls-1{fill:#ccc;}</style></defs><path class="cls-1" d="M425.4,358a3.2,3.2,0,0,0-4.34-1.15l-1.79,1a4.09,4.09,0,0,1-6.15-3.54v-2.06a3.15,3.15,0,0,0-6.3,0v2.06a4.1,4.1,0,0,1-6.16,3.54l-1.79-1a3.17,3.17,0,1,0-3.19,5.48l1.91,1.12a4.1,4.1,0,0,1,0,7.08l-1.91,1.12a3.17,3.17,0,1,0,3.19,5.48l1.79-1a4.1,4.1,0,0,1,6.16,3.54v2.06a3.15,3.15,0,1,0,6.3,0v-2.06a4.09,4.09,0,0,1,6.15-3.54l1.79,1a3.17,3.17,0,0,0,3.2-5.48l-1.92-1.12a4.1,4.1,0,0,1,0-7.08l1.92-1.12A3.16,3.16,0,0,0,425.4,358Z" transform="translate(-388.87 -192.16)"/><path class="cls-1" d="M454.57,375.93a3.19,3.19,0,0,0,4.34,1.14l1.79-1a4.1,4.1,0,0,1,6.15,3.55v2.06a3.15,3.15,0,0,0,6.3,0v-2.06a4.11,4.11,0,0,1,6.16-3.55l1.79,1a3.17,3.17,0,1,0,3.19-5.48l-1.91-1.11a4.11,4.11,0,0,1,0-7.09l1.91-1.11a3.17,3.17,0,1,0-3.19-5.48l-1.79,1a4.11,4.11,0,0,1-6.16-3.55v-2.06a3.15,3.15,0,1,0-6.3,0v2.1a4.1,4.1,0,0,1-6.14,3.55l-1.8-1a3.17,3.17,0,0,0-3.2,5.48l1.89,1.1a4.1,4.1,0,0,1,0,7.09l-1.87,1.08A3.19,3.19,0,0,0,454.57,375.93Z" transform="translate(-388.87 -192.16)"/><path class="cls-1" d="M448.91,399.85v6.73a1.26,1.26,0,0,0,1.26,1.26h39.71a1.26,1.26,0,0,0,1.26-1.26V398.7a1.27,1.27,0,0,0-1.26-1.27H451.33A2.41,2.41,0,0,0,448.91,399.85Z" transform="translate(-388.87 -192.16)"/><path class="cls-1" d="M540,244.16h-.27V231.75c0-21.6-17.67-39.95-39.22-39.59a38.67,38.67,0,0,0-37.94,38.58v4.43h13.6a3.25,3.25,0,0,0,3.24-3.24v-.37c0-11.59,8.72-21.77,20.32-22.5a21.72,21.72,0,0,1,23.1,21.64v13.42h-32v0H461.37a10.2,10.2,0,0,0-9.9,10.14v61.9a4.43,4.43,0,0,0,4.43,4.44h89.84a4.44,4.44,0,0,0,4.44-4.44V254.35A10.13,10.13,0,0,0,540,244.16Zm-33.15,40.78a2.19,2.19,0,0,0-1,2.05c.05,4.11.05,8.22,0,12.37h0a4.34,4.34,0,0,1-2.33,4.16,4.82,4.82,0,0,1-7.21-4.16V286.94a2.16,2.16,0,0,0-.92-2,9.39,9.39,0,0,1-3.1-11.6,9.6,9.6,0,0,1,18.35,3.79A8.68,8.68,0,0,1,506.89,284.94Z" transform="translate(-388.87 -192.16)"/><path class="cls-1" d="M508.9,398.7v7.88a1.26,1.26,0,0,0,1.26,1.26h39.71a1.26,1.26,0,0,0,1.27-1.26V398.7a1.27,1.27,0,0,0-1.27-1.27H510.16A1.27,1.27,0,0,0,508.9,398.7Z" transform="translate(-388.87 -192.16)"/><path class="cls-1" d="M514.56,375.93a3.19,3.19,0,0,0,4.34,1.14l1.79-1a4.11,4.11,0,0,1,6.16,3.55v2.06a3.15,3.15,0,0,0,6.3,0v-2.06A4.1,4.1,0,0,1,539.3,376l1.79,1a3.17,3.17,0,0,0,3.2-5.48l-1.92-1.11a4.11,4.11,0,0,1,0-7.09l1.92-1.11a3.17,3.17,0,0,0-3.2-5.48l-1.79,1a4.1,4.1,0,0,1-6.15-3.55v-2.06a3.15,3.15,0,1,0-6.3,0v2.06a4.11,4.11,0,0,1-6.16,3.55l-1.79-1a3.17,3.17,0,1,0-3.19,5.48l1.91,1.11a4.11,4.11,0,0,1,0,7.09l-1.91,1.11A3.2,3.2,0,0,0,514.56,375.93Z" transform="translate(-388.87 -192.16)"/><path class="cls-1" d="M609.87,397.43H570.16a1.26,1.26,0,0,0-1.26,1.27v7.88a1.25,1.25,0,0,0,1.26,1.26h39.71a1.26,1.26,0,0,0,1.26-1.26V398.7A1.27,1.27,0,0,0,609.87,397.43Z" transform="translate(-388.87 -192.16)"/><path class="cls-1" d="M390.13,407.84h39.71a1.25,1.25,0,0,0,1.26-1.26V398.7a1.26,1.26,0,0,0-1.26-1.27H390.13a1.27,1.27,0,0,0-1.26,1.27v7.88A1.26,1.26,0,0,0,390.13,407.84Z" transform="translate(-388.87 -192.16)"/><path class="cls-1" d="M574.6,375.93a3.19,3.19,0,0,0,4.34,1.14l1.79-1a4.1,4.1,0,0,1,6.15,3.55v2.06a3.15,3.15,0,0,0,6.3,0v-2.06a4.11,4.11,0,0,1,6.16-3.55l1.79,1a3.17,3.17,0,1,0,3.19-5.48l-1.91-1.11a4.11,4.11,0,0,1,0-7.09l1.91-1.11a3.17,3.17,0,1,0-3.19-5.48l-1.79,1a4.11,4.11,0,0,1-6.16-3.55v-2.06a3.15,3.15,0,1,0-6.3,0v2.06a4.1,4.1,0,0,1-6.15,3.55l-1.79-1a3.17,3.17,0,1,0-3.2,5.48l1.92,1.11a4.11,4.11,0,0,1,0,7.09l-1.92,1.11A3.16,3.16,0,0,0,574.6,375.93Z" transform="translate(-388.87 -192.16)"/></svg>