<svg id="Layer_1" data-name="Layer 1" xmlns="http://www.w3.org/2000/svg" viewBox="0 0 610 122"><defs><style>.cls-1{fill:none;stroke:#333;stroke-miterlimit:10;stroke-width:7px;}.cls-2{fill:#333;}</style></defs><rect class="cls-1" x="3.5" y="3.5" width="603" height="115" rx="3.62"/><path class="cls-2" d="M239.21,323.59a1.24,1.24,0,0,0-1.68-.44l-.69.4a1.58,1.58,0,0,1-2.38-1.37v-.79a1.22,1.22,0,0,0-2.44,0v.79a1.58,1.58,0,0,1-2.38,1.37l-.69-.4a1.23,1.23,0,0,0-1.23,2.12l.74.43a1.59,1.59,0,0,1,0,2.74l-.74.43A1.23,1.23,0,0,0,229,331l.69-.4A1.58,1.58,0,0,1,232,332v.79a1.22,1.22,0,0,0,2.44,0V332a1.58,1.58,0,0,1,2.38-1.37l.69.4a1.23,1.23,0,0,0,1.24-2.12l-.75-.43a1.59,1.59,0,0,1,0-2.74l.75-.43A1.23,1.23,0,0,0,239.21,323.59Z" transform="translate(-194.5 -239)"/><path class="cls-2" d="M250.48,330.53a1.24,1.24,0,0,0,1.68.44l.69-.4a1.59,1.59,0,0,1,2.38,1.37v.79a1.22,1.22,0,1,0,2.44,0v-.79a1.59,1.59,0,0,1,2.38-1.37l.69.4a1.23,1.23,0,0,0,1.23-2.12l-.74-.43a1.59,1.59,0,0,1,0-2.74l.74-.43a1.23,1.23,0,0,0-1.23-2.12l-.69.4a1.58,1.58,0,0,1-2.38-1.37v-.79a1.22,1.22,0,1,0-2.44,0v.81a1.58,1.58,0,0,1-2.37,1.37l-.7-.4a1.23,1.23,0,1,0-1.23,2.12l.72.42a1.59,1.59,0,0,1,0,2.74l-.72.42A1.24,1.24,0,0,0,250.48,330.53Z" transform="translate(-194.5 -239)"/><path class="cls-2" d="M248.3,339.78v2.6a.48.48,0,0,0,.48.48h15.35a.49.49,0,0,0,.49-.48v-3.05a.49.49,0,0,0-.49-.49h-14.9A.92.92,0,0,0,248.3,339.78Z" transform="translate(-194.5 -239)"/><path class="cls-2" d="M283.52,279.6h-.1v-4.81c0-8.34-6.83-15.44-15.16-15.3a15,15,0,0,0-14.67,14.92v1.71h5.26a1.26,1.26,0,0,0,1.25-1.25v-.15A8.61,8.61,0,0,1,268,266a8.4,8.4,0,0,1,8.93,8.37v5.19H264.53v0H253.11a3.94,3.94,0,0,0-3.83,3.91v23.93a1.72,1.72,0,0,0,1.72,1.72h34.73a1.72,1.72,0,0,0,1.71-1.72V283.53A3.91,3.91,0,0,0,283.52,279.6Zm-12.81,15.76a.84.84,0,0,0-.39.79c0,1.59,0,3.18,0,4.78h0a1.67,1.67,0,0,1-.9,1.61,1.87,1.87,0,0,1-2.79-1.61v-4.8a.83.83,0,0,0-.35-.76,3.62,3.62,0,0,1-1.2-4.48,3.71,3.71,0,0,1,7.09,1.46A3.37,3.37,0,0,1,270.71,295.36Z" transform="translate(-194.5 -239)"/><path class="cls-2" d="M271.49,339.33v3.05a.48.48,0,0,0,.48.48h15.35a.49.49,0,0,0,.49-.48v-3.05a.49.49,0,0,0-.49-.49H272A.48.48,0,0,0,271.49,339.33Z" transform="translate(-194.5 -239)"/><path class="cls-2" d="M273.67,330.53a1.24,1.24,0,0,0,1.68.44l.69-.4a1.59,1.59,0,0,1,2.38,1.37v.79a1.22,1.22,0,1,0,2.44,0v-.79a1.59,1.59,0,0,1,2.38-1.37l.69.4a1.23,1.23,0,0,0,1.23-2.12l-.74-.43a1.59,1.59,0,0,1,0-2.74l.74-.43a1.23,1.23,0,0,0-1.23-2.12l-.69.4a1.58,1.58,0,0,1-2.38-1.37v-.79a1.22,1.22,0,1,0-2.44,0v.79a1.58,1.58,0,0,1-2.38,1.37l-.69-.4a1.23,1.23,0,1,0-1.24,2.12l.75.43a1.59,1.59,0,0,1,0,2.74l-.75.43A1.24,1.24,0,0,0,273.67,330.53Z" transform="translate(-194.5 -239)"/><path class="cls-2" d="M310.51,338.84H295.16a.48.48,0,0,0-.48.49v3.05a.48.48,0,0,0,.48.48h15.35a.49.49,0,0,0,.49-.48v-3.05A.49.49,0,0,0,310.51,338.84Z" transform="translate(-194.5 -239)"/><path class="cls-2" d="M225.58,342.86h15.34a.49.49,0,0,0,.49-.48v-3.05a.49.49,0,0,0-.49-.49H225.58a.49.49,0,0,0-.49.49v3.05A.49.49,0,0,0,225.58,342.86Z" transform="translate(-194.5 -239)"/><path class="cls-2" d="M296.88,330.53a1.24,1.24,0,0,0,1.68.44l.69-.4a1.59,1.59,0,0,1,2.38,1.37v.79a1.22,1.22,0,1,0,2.43,0v-.79a1.59,1.59,0,0,1,2.38-1.37l.7.4a1.23,1.23,0,0,0,1.23-2.12l-.74-.43a1.59,1.59,0,0,1,0-2.74l.74-.43a1.23,1.23,0,0,0-1.23-2.12l-.7.4a1.58,1.58,0,0,1-2.38-1.37v-.79a1.22,1.22,0,1,0-2.43,0v.79a1.58,1.58,0,0,1-2.38,1.37l-.69-.4a1.23,1.23,0,1,0-1.24,2.12l.74.43a1.59,1.59,0,0,1,0,2.74l-.74.43A1.23,1.23,0,0,0,296.88,330.53Z" transform="translate(-194.5 -239)"/><path class="cls-2" d="M348.12,302.65v18H337.57V269.5h20a23.2,23.2,0,0,1,10.14,2.11,15.56,15.56,0,0,1,6.73,6,16.7,16.7,0,0,1,2.36,8.84q0,7.51-5.15,11.86t-14.26,4.34Zm0-8.54h9.42c2.79,0,4.92-.65,6.38-2a7.16,7.16,0,0,0,2.2-5.62,8.41,8.41,0,0,0-2.22-6.08,8.25,8.25,0,0,0-6.11-2.4h-9.67Z" transform="translate(-194.5 -239)"/><path class="cls-2" d="M405,320.69a11.18,11.18,0,0,1-1-3.41,12.3,12.3,0,0,1-9.6,4.11,13.54,13.54,0,0,1-9.26-3.23,10.41,10.41,0,0,1-3.67-8.16,10.75,10.75,0,0,1,4.48-9.28q4.49-3.24,12.95-3.27h4.68v-2.18a6.29,6.29,0,0,0-1.35-4.22,5.36,5.36,0,0,0-4.28-1.58,6,6,0,0,0-4,1.23,4.2,4.2,0,0,0-1.46,3.38H382.29a10.19,10.19,0,0,1,2-6.12,13.4,13.4,0,0,1,5.76-4.41,21,21,0,0,1,8.37-1.6q7,0,11.16,3.53t4.13,9.93V311.9c0,3.61.53,6.34,1.52,8.19v.6Zm-8.4-7.07a8.74,8.74,0,0,0,4.15-1,6.59,6.59,0,0,0,2.81-2.69v-6.54h-3.8q-7.62,0-8.12,5.28l0,.59a4.06,4.06,0,0,0,1.33,3.13A5.19,5.19,0,0,0,396.6,313.62Z" transform="translate(-194.5 -239)"/><path class="cls-2" d="M442.16,310.18a3.29,3.29,0,0,0-1.85-2.94,21,21,0,0,0-5.92-1.91q-13.58-2.85-13.57-11.54a10.45,10.45,0,0,1,4.2-8.45q4.2-3.39,11-3.39,7.25,0,11.58,3.41a10.72,10.72,0,0,1,4.34,8.86H441.77a5,5,0,0,0-1.4-3.61,6,6,0,0,0-4.4-1.42,6.1,6.1,0,0,0-4,1.16,3.66,3.66,0,0,0-1.41,2.95,3.15,3.15,0,0,0,1.6,2.73,16.48,16.48,0,0,0,5.4,1.79,42.9,42.9,0,0,1,6.4,1.71q8.06,2.94,8.05,10.23a9.92,9.92,0,0,1-4.47,8.42q-4.45,3.21-11.53,3.21a20.27,20.27,0,0,1-8.49-1.7,14.33,14.33,0,0,1-5.82-4.68,10.9,10.9,0,0,1-2.11-6.41h9.64a5.28,5.28,0,0,0,2,4.14,7.9,7.9,0,0,0,5,1.45,7.37,7.37,0,0,0,4.42-1.11A3.47,3.47,0,0,0,442.16,310.18Z" transform="translate(-194.5 -239)"/><path class="cls-2" d="M479.18,310.18a3.29,3.29,0,0,0-1.85-2.94,21,21,0,0,0-5.92-1.91q-13.57-2.85-13.57-11.54a10.45,10.45,0,0,1,4.2-8.45q4.2-3.39,11-3.39,7.25,0,11.58,3.41a10.72,10.72,0,0,1,4.34,8.86H478.79a5,5,0,0,0-1.4-3.61,6,6,0,0,0-4.4-1.42,6.1,6.1,0,0,0-4,1.16,3.66,3.66,0,0,0-1.41,2.95,3.15,3.15,0,0,0,1.6,2.73,16.48,16.48,0,0,0,5.4,1.79,42.9,42.9,0,0,1,6.4,1.71q8.06,2.94,8.05,10.23a9.92,9.92,0,0,1-4.47,8.42q-4.45,3.21-11.53,3.21a20.23,20.23,0,0,1-8.49-1.7,14.33,14.33,0,0,1-5.82-4.68,10.9,10.9,0,0,1-2.11-6.41h9.64a5.28,5.28,0,0,0,2,4.14,7.9,7.9,0,0,0,5,1.45,7.37,7.37,0,0,0,4.42-1.11A3.47,3.47,0,0,0,479.18,310.18Z" transform="translate(-194.5 -239)"/><path class="cls-2" d="M494.12,301.39q0-8.76,4.17-14.1A13.49,13.49,0,0,1,509.52,282q6.26,0,9.74,4.29l.42-3.59h9.21v36.77a16.29,16.29,0,0,1-2.27,8.69,14.56,14.56,0,0,1-6.38,5.62,22.4,22.4,0,0,1-9.63,1.94,20.94,20.94,0,0,1-8.16-1.67,14.51,14.51,0,0,1-6-4.31l4.5-6.19a11.89,11.89,0,0,0,9.21,4.26,8.69,8.69,0,0,0,6.3-2.17,8.09,8.09,0,0,0,2.25-6.13v-2a11.76,11.76,0,0,1-9.25,4A13.44,13.44,0,0,1,498.36,316q-4.25-5.36-4.24-14.22Zm10.16.76q0,5.18,2.08,8.11a6.59,6.59,0,0,0,5.69,2.94q4.63,0,6.65-3.48v-16a7.06,7.06,0,0,0-6.58-3.48,6.66,6.66,0,0,0-5.75,3Q504.29,296.2,504.28,302.15Z" transform="translate(-194.5 -239)"/><path class="cls-2" d="M554.2,321.39q-8.37,0-13.62-5.13t-5.26-13.68v-1a22.94,22.94,0,0,1,2.22-10.25,16.32,16.32,0,0,1,6.27-7,17.63,17.63,0,0,1,9.27-2.44q7.8,0,12.29,4.92t4.48,14V305H545.62a9.41,9.41,0,0,0,3,6,9,9,0,0,0,6.27,2.25,11,11,0,0,0,9.18-4.25l5,5.59a15.23,15.23,0,0,1-6.19,5A20.24,20.24,0,0,1,554.2,321.39ZM553,290.14a6.33,6.33,0,0,0-4.9,2.05,10.54,10.54,0,0,0-2.41,5.86h14.13v-.81A7.56,7.56,0,0,0,558,292,6.6,6.6,0,0,0,553,290.14Z" transform="translate(-194.5 -239)"/><path class="cls-2" d="M585,282.65l.32,4.39A13.29,13.29,0,0,1,596.21,282q6.06,0,9,3.55c2,2.37,3,5.9,3,10.62v24.57H598.08V296.36c0-2.15-.47-3.72-1.41-4.69s-2.49-1.46-4.67-1.46a7,7,0,0,0-6.44,3.66v26.82H575.4v-38Z" transform="translate(-194.5 -239)"/><path class="cls-2" d="M616.46,315.7a5.12,5.12,0,0,1,1.64-3.94,6.36,6.36,0,0,1,8.23,0A5.12,5.12,0,0,1,628,315.7a5,5,0,0,1-1.62,3.88,6.44,6.44,0,0,1-8.26,0A5,5,0,0,1,616.46,315.7Z" transform="translate(-194.5 -239)"/><path class="cls-2" d="M649,273.3v9.35h6.5v7.45H649v19a4.53,4.53,0,0,0,.81,3,4.05,4.05,0,0,0,3.09.92,16.54,16.54,0,0,0,3-.25v7.7a20.86,20.86,0,0,1-6.15.91q-10.69,0-10.9-10.79V290.1H633.3v-7.45h5.56V273.3Z" transform="translate(-194.5 -239)"/><path class="cls-2" d="M678.69,321.39q-8.37,0-13.62-5.13t-5.26-13.68v-1A22.94,22.94,0,0,1,662,291.35a16.26,16.26,0,0,1,6.27-7,17.63,17.63,0,0,1,9.27-2.44q7.8,0,12.28,4.92t4.49,14V305H670.11a9.45,9.45,0,0,0,3,6,9,9,0,0,0,6.28,2.25,11,11,0,0,0,9.18-4.25l5,5.59a15.3,15.3,0,0,1-6.19,5A20.24,20.24,0,0,1,678.69,321.39Zm-1.16-31.25a6.33,6.33,0,0,0-4.9,2.05,10.54,10.54,0,0,0-2.41,5.86h14.13v-.81a7.56,7.56,0,0,0-1.83-5.25A6.56,6.56,0,0,0,677.53,290.14Z" transform="translate(-194.5 -239)"/><path class="cls-2" d="M715.92,313.2a6.61,6.61,0,0,0,4.57-1.55,5.43,5.43,0,0,0,1.83-4.11h9.53a13.14,13.14,0,0,1-2.11,7.09,14,14,0,0,1-5.68,5,17.81,17.81,0,0,1-8,1.77q-8.16,0-12.87-5.18t-4.71-14.33v-.67q0-8.79,4.68-14T716,282q7.14,0,11.44,4.06a14.38,14.38,0,0,1,4.38,10.81h-9.53a7,7,0,0,0-1.83-4.83,6.8,6.8,0,0,0-10,.74q-1.82,2.58-1.81,8.39v1.06q0,5.88,1.79,8.45A6.18,6.18,0,0,0,715.92,313.2Z" transform="translate(-194.5 -239)"/><path class="cls-2" d="M747.56,286.8A12.67,12.67,0,0,1,757.72,282q12.38,0,12.55,14.38v24.36H760.11V296.61a7.14,7.14,0,0,0-1.4-4.84q-1.41-1.56-4.68-1.56a6.93,6.93,0,0,0-6.47,3.44v27H737.4v-54h10.16Z" transform="translate(-194.5 -239)"/></svg>